<?xml version="1.0" encoding="UTF-8" standalone="no"?>
<!DOCTYPE svg PUBLIC "-//W3C//DTD SVG 1.1//EN"
 "http://www.w3.org/Graphics/SVG/1.1/DTD/svg11.dtd">
<!-- Generated by graphviz version 2.43.0 (0)
 -->
<!-- Title: G Pages: 1 -->
<svg width="389pt" height="260pt"
 viewBox="0.00 0.00 388.50 260.00" xmlns="http://www.w3.org/2000/svg" xmlns:xlink="http://www.w3.org/1999/xlink">
<g id="graph0" class="graph" transform="scale(1 1) rotate(0) translate(4 256)">
<title>G</title>
<polygon fill="white" stroke="transparent" points="-4,4 -4,-256 384.5,-256 384.5,4 -4,4"/>
<g id="clust1" class="cluster">
<title>cluster_Global</title>
<path fill="none" stroke="gray" d="M20,-8C20,-8 360.5,-8 360.5,-8 366.5,-8 372.5,-14 372.5,-20 372.5,-20 372.5,-232 372.5,-232 372.5,-238 366.5,-244 360.5,-244 360.5,-244 20,-244 20,-244 14,-244 8,-238 8,-232 8,-232 8,-20 8,-20 8,-14 14,-8 20,-8"/>
<text text-anchor="middle" x="190.25" y="-231.2" font-family="Times,serif" font-size="11.00" fill="gray">Global</text>
</g>
<g id="clust2" class="cluster">
<title>cluster_\validators</title>
<path fill="none" stroke="gray" d="M28,-62C28,-62 352.5,-62 352.5,-62 358.5,-62 364.5,-68 364.5,-74 364.5,-74 364.5,-204 364.5,-204 364.5,-210 358.5,-216 352.5,-216 352.5,-216 28,-216 28,-216 22,-216 16,-210 16,-204 16,-204 16,-74 16,-74 16,-68 22,-62 28,-62"/>
<text text-anchor="middle" x="190.25" y="-203.2" font-family="Times,serif" font-size="11.00" fill="gray">validators</text>
</g>
<g id="clust3" class="cluster">
<title>cluster_\validators\rules</title>
<path fill="none" stroke="gray" d="M295,-116C295,-116 341,-116 341,-116 347,-116 353,-122 353,-128 353,-128 353,-176 353,-176 353,-182 347,-188 341,-188 341,-188 295,-188 295,-188 289,-188 283,-182 283,-176 283,-176 283,-128 283,-128 283,-122 289,-116 295,-116"/>
<text text-anchor="middle" x="318" y="-175.2" font-family="Times,serif" font-size="11.00" fill="gray">rules</text>
</g>
<!-- \\validators\\rules\\In -->
<g id="node1" class="node">
<title>\\validators\\rules\\In</title>
<polygon fill="none" stroke="black" points="345,-160 291,-160 291,-124 345,-124 345,-160"/>
<text text-anchor="middle" x="318" y="-139.2" font-family="Courier,monospace" font-size="11.00">In</text>
</g>
<!-- \\validators\\Rule -->
<g id="node2" class="node">
<title>\\validators\\Rule</title>
<polygon fill="none" stroke="black" points="204,-160 150,-160 150,-124 204,-124 204,-160"/>
<text text-anchor="middle" x="177" y="-139.2" font-family="Courier,monospace" font-size="11.00">Rule</text>
</g>
<!-- \\validators\\rules\\In&#45;&gt;\\validators\\Rule -->
<g id="edge2" class="edge">
<title>\\validators\\rules\\In&#45;&gt;\\validators\\Rule</title>
<path fill="none" stroke="black" d="M290.86,-142C269.21,-142 238.22,-142 214.19,-142"/>
<polygon fill="none" stroke="black" points="214.03,-138.5 204.03,-142 214.03,-145.5 214.03,-138.5"/>
</g>
<!-- \\validators\\iRule -->
<g id="node3" class="node">
<title>\\validators\\iRule</title>
<polygon fill="none" stroke="black" points="78,-160 24,-160 24,-124 78,-124 78,-160"/>
<text text-anchor="middle" x="51" y="-139.2" font-family="Courier,monospace" font-size="11.00">iRule</text>
</g>
<!-- \\validators\\Rule&#45;&gt;\\validators\\iRule -->
<g id="edge1" class="edge">
<title>\\validators\\Rule&#45;&gt;\\validators\\iRule</title>
<path fill="none" stroke="black" stroke-dasharray="1,5" d="M149.7,-142C131.87,-142 108.05,-142 88.39,-142"/>
<polygon fill="none" stroke="black" points="88.26,-138.5 78.26,-142 88.26,-145.5 88.26,-138.5"/>
</g>
<!-- \\validators\\Validator -->
<g id="node4" class="node">
<title>\\validators\\Validator</title>
<polygon fill="none" stroke="black" points="356.5,-106 279.5,-106 279.5,-70 356.5,-70 356.5,-106"/>
<text text-anchor="middle" x="318" y="-85.2" font-family="Courier,monospace" font-size="11.00">Validator</text>
</g>
<!-- \\Form -->
<g id="node5" class="node">
<title>\\Form</title>
<polygon fill="none" stroke="black" points="360,-52 276,-52 276,-16 360,-16 360,-52"/>
<text text-anchor="start" x="284" y="-37.2" font-family="Courier,monospace" font-size="11.00">«abstract»</text>
<text text-anchor="start" x="304" y="-25.2" font-family="Courier,monospace" font-size="11.00">Form</text>
</g>
</g>
</svg>
