<?xml version="1.0" encoding="UTF-8" standalone="no"?>
<!DOCTYPE svg PUBLIC "-//W3C//DTD SVG 1.1//EN"
 "http://www.w3.org/Graphics/SVG/1.1/DTD/svg11.dtd">
<!-- Generated by graphviz version 2.43.0 (0)
 -->
<!-- Title: G Pages: 1 -->
<svg width="389pt" height="368pt"
 viewBox="0.00 0.00 388.50 368.00" xmlns="http://www.w3.org/2000/svg" xmlns:xlink="http://www.w3.org/1999/xlink">
<g id="graph0" class="graph" transform="scale(1 1) rotate(0) translate(4 364)">
<title>G</title>
<polygon fill="white" stroke="transparent" points="-4,4 -4,-364 384.5,-364 384.5,4 -4,4"/>
<g id="clust1" class="cluster">
<title>cluster_Global</title>
<path fill="none" stroke="gray" d="M20,-8C20,-8 360.5,-8 360.5,-8 366.5,-8 372.5,-14 372.5,-20 372.5,-20 372.5,-340 372.5,-340 372.5,-346 366.5,-352 360.5,-352 360.5,-352 20,-352 20,-352 14,-352 8,-346 8,-340 8,-340 8,-20 8,-20 8,-14 14,-8 20,-8"/>
<text text-anchor="middle" x="190.25" y="-339.2" font-family="Times,serif" font-size="11.00" fill="gray">Global</text>
</g>
<g id="clust2" class="cluster">
<title>cluster_\validators</title>
<path fill="none" stroke="gray" d="M28,-62C28,-62 352.5,-62 352.5,-62 358.5,-62 364.5,-68 364.5,-74 364.5,-74 364.5,-312 364.5,-312 364.5,-318 358.5,-324 352.5,-324 352.5,-324 28,-324 28,-324 22,-324 16,-318 16,-312 16,-312 16,-74 16,-74 16,-68 22,-62 28,-62"/>
<text text-anchor="middle" x="190.25" y="-311.2" font-family="Times,serif" font-size="11.00" fill="gray">validators</text>
</g>
<g id="clust3" class="cluster">
<title>cluster_\validators\rules</title>
<path fill="none" stroke="gray" d="M293.5,-116C293.5,-116 342.5,-116 342.5,-116 348.5,-116 354.5,-122 354.5,-128 354.5,-128 354.5,-284 354.5,-284 354.5,-290 348.5,-296 342.5,-296 342.5,-296 293.5,-296 293.5,-296 287.5,-296 281.5,-290 281.5,-284 281.5,-284 281.5,-128 281.5,-128 281.5,-122 287.5,-116 293.5,-116"/>
<text text-anchor="middle" x="318" y="-283.2" font-family="Times,serif" font-size="11.00" fill="gray">rules</text>
</g>
<!-- \\validators\\rules\\In -->
<g id="node1" class="node">
<title>\\validators\\rules\\In</title>
<polygon fill="none" stroke="black" points="345,-268 291,-268 291,-232 345,-232 345,-268"/>
<text text-anchor="middle" x="318" y="-247.2" font-family="Courier,monospace" font-size="11.00">In</text>
</g>
<!-- \\validators\\Rule -->
<g id="node4" class="node">
<title>\\validators\\Rule</title>
<polygon fill="none" stroke="black" points="204,-214 150,-214 150,-178 204,-178 204,-214"/>
<text text-anchor="middle" x="177" y="-193.2" font-family="Courier,monospace" font-size="11.00">Rule</text>
</g>
<!-- \\validators\\rules\\In&#45;&gt;\\validators\\Rule -->
<g id="edge1" class="edge">
<title>\\validators\\rules\\In&#45;&gt;\\validators\\Rule</title>
<path fill="none" stroke="black" d="M290.86,-239.84C269.01,-231.36 237.66,-219.18 213.54,-209.81"/>
<polygon fill="none" stroke="black" points="214.62,-206.47 204.03,-206.11 212.08,-213 214.62,-206.47"/>
</g>
<!-- \\validators\\rules\\NotIn -->
<g id="node2" class="node">
<title>\\validators\\rules\\NotIn</title>
<polygon fill="none" stroke="black" points="345,-214 291,-214 291,-178 345,-178 345,-214"/>
<text text-anchor="middle" x="318" y="-193.2" font-family="Courier,monospace" font-size="11.00">NotIn</text>
</g>
<!-- \\validators\\rules\\NotIn&#45;&gt;\\validators\\Rule -->
<g id="edge3" class="edge">
<title>\\validators\\rules\\NotIn&#45;&gt;\\validators\\Rule</title>
<path fill="none" stroke="black" d="M290.86,-196C269.21,-196 238.22,-196 214.19,-196"/>
<polygon fill="none" stroke="black" points="214.03,-192.5 204.03,-196 214.03,-199.5 214.03,-192.5"/>
</g>
<!-- \\validators\\rules\\Format -->
<g id="node3" class="node">
<title>\\validators\\rules\\Format</title>
<polygon fill="none" stroke="black" points="346.5,-160 289.5,-160 289.5,-124 346.5,-124 346.5,-160"/>
<text text-anchor="middle" x="318" y="-139.2" font-family="Courier,monospace" font-size="11.00">Format</text>
</g>
<!-- \\validators\\rules\\Format&#45;&gt;\\validators\\Rule -->
<g id="edge4" class="edge">
<title>\\validators\\rules\\Format&#45;&gt;\\validators\\Rule</title>
<path fill="none" stroke="black" d="M289.21,-152.8C267.58,-161.2 237.4,-172.93 213.93,-182.04"/>
<polygon fill="none" stroke="black" points="212.39,-178.89 204.33,-185.77 214.92,-185.41 212.39,-178.89"/>
</g>
<!-- \\validators\\iRule -->
<g id="node5" class="node">
<title>\\validators\\iRule</title>
<polygon fill="none" stroke="black" points="78,-214 24,-214 24,-178 78,-178 78,-214"/>
<text text-anchor="middle" x="51" y="-193.2" font-family="Courier,monospace" font-size="11.00">iRule</text>
</g>
<!-- \\validators\\Rule&#45;&gt;\\validators\\iRule -->
<g id="edge2" class="edge">
<title>\\validators\\Rule&#45;&gt;\\validators\\iRule</title>
<path fill="none" stroke="black" stroke-dasharray="1,5" d="M149.7,-196C131.87,-196 108.05,-196 88.39,-196"/>
<polygon fill="none" stroke="black" points="88.26,-192.5 78.26,-196 88.26,-199.5 88.26,-192.5"/>
</g>
<!-- \\validators\\Validator -->
<g id="node6" class="node">
<title>\\validators\\Validator</title>
<polygon fill="none" stroke="black" points="356.5,-106 279.5,-106 279.5,-70 356.5,-70 356.5,-106"/>
<text text-anchor="middle" x="318" y="-85.2" font-family="Courier,monospace" font-size="11.00">Validator</text>
</g>
<!-- \\Form -->
<g id="node7" class="node">
<title>\\Form</title>
<polygon fill="none" stroke="black" points="360,-52 276,-52 276,-16 360,-16 360,-52"/>
<text text-anchor="start" x="284" y="-37.2" font-family="Courier,monospace" font-size="11.00">«abstract»</text>
<text text-anchor="start" x="304" y="-25.2" font-family="Courier,monospace" font-size="11.00">Form</text>
</g>
</g>
</svg>
