<?xml version="1.0" encoding="UTF-8" standalone="no"?>
<!DOCTYPE svg PUBLIC "-//W3C//DTD SVG 1.1//EN"
 "http://www.w3.org/Graphics/SVG/1.1/DTD/svg11.dtd">
<!-- Generated by graphviz version 2.43.0 (0)
 -->
<!-- Title: G Pages: 1 -->
<svg width="389pt" height="314pt"
 viewBox="0.00 0.00 388.50 314.00" xmlns="http://www.w3.org/2000/svg" xmlns:xlink="http://www.w3.org/1999/xlink">
<g id="graph0" class="graph" transform="scale(1 1) rotate(0) translate(4 310)">
<title>G</title>
<polygon fill="white" stroke="transparent" points="-4,4 -4,-310 384.5,-310 384.5,4 -4,4"/>
<g id="clust1" class="cluster">
<title>cluster_Global</title>
<path fill="none" stroke="gray" d="M20,-8C20,-8 360.5,-8 360.5,-8 366.5,-8 372.5,-14 372.5,-20 372.5,-20 372.5,-286 372.5,-286 372.5,-292 366.5,-298 360.5,-298 360.5,-298 20,-298 20,-298 14,-298 8,-292 8,-286 8,-286 8,-20 8,-20 8,-14 14,-8 20,-8"/>
<text text-anchor="middle" x="190.25" y="-285.2" font-family="Times,serif" font-size="11.00" fill="gray">Global</text>
</g>
<g id="clust2" class="cluster">
<title>cluster_\validators</title>
<path fill="none" stroke="gray" d="M28,-62C28,-62 352.5,-62 352.5,-62 358.5,-62 364.5,-68 364.5,-74 364.5,-74 364.5,-258 364.5,-258 364.5,-264 358.5,-270 352.5,-270 352.5,-270 28,-270 28,-270 22,-270 16,-264 16,-258 16,-258 16,-74 16,-74 16,-68 22,-62 28,-62"/>
<text text-anchor="middle" x="190.25" y="-257.2" font-family="Times,serif" font-size="11.00" fill="gray">validators</text>
</g>
<g id="clust3" class="cluster">
<title>cluster_\validators\rules</title>
<path fill="none" stroke="gray" d="M295,-116C295,-116 341,-116 341,-116 347,-116 353,-122 353,-128 353,-128 353,-230 353,-230 353,-236 347,-242 341,-242 341,-242 295,-242 295,-242 289,-242 283,-236 283,-230 283,-230 283,-128 283,-128 283,-122 289,-116 295,-116"/>
<text text-anchor="middle" x="318" y="-229.2" font-family="Times,serif" font-size="11.00" fill="gray">rules</text>
</g>
<!-- \\validators\\rules\\In -->
<g id="node1" class="node">
<title>\\validators\\rules\\In</title>
<polygon fill="none" stroke="black" points="345,-214 291,-214 291,-178 345,-178 345,-214"/>
<text text-anchor="middle" x="318" y="-193.2" font-family="Courier,monospace" font-size="11.00">In</text>
</g>
<!-- \\validators\\Rule -->
<g id="node3" class="node">
<title>\\validators\\Rule</title>
<polygon fill="none" stroke="black" points="204,-187 150,-187 150,-151 204,-151 204,-187"/>
<text text-anchor="middle" x="177" y="-166.2" font-family="Courier,monospace" font-size="11.00">Rule</text>
</g>
<!-- \\validators\\rules\\In&#45;&gt;\\validators\\Rule -->
<g id="edge1" class="edge">
<title>\\validators\\rules\\In&#45;&gt;\\validators\\Rule</title>
<path fill="none" stroke="black" d="M290.86,-190.92C269.11,-186.7 237.94,-180.64 213.86,-175.97"/>
<polygon fill="none" stroke="black" points="214.51,-172.53 204.03,-174.06 213.18,-179.4 214.51,-172.53"/>
</g>
<!-- \\validators\\rules\\NotIn -->
<g id="node2" class="node">
<title>\\validators\\rules\\NotIn</title>
<polygon fill="none" stroke="black" points="345,-160 291,-160 291,-124 345,-124 345,-160"/>
<text text-anchor="middle" x="318" y="-139.2" font-family="Courier,monospace" font-size="11.00">NotIn</text>
</g>
<!-- \\validators\\rules\\NotIn&#45;&gt;\\validators\\Rule -->
<g id="edge3" class="edge">
<title>\\validators\\rules\\NotIn&#45;&gt;\\validators\\Rule</title>
<path fill="none" stroke="black" d="M290.86,-147.08C269.11,-151.3 237.94,-157.36 213.86,-162.03"/>
<polygon fill="none" stroke="black" points="213.18,-158.6 204.03,-163.94 214.51,-165.47 213.18,-158.6"/>
</g>
<!-- \\validators\\iRule -->
<g id="node4" class="node">
<title>\\validators\\iRule</title>
<polygon fill="none" stroke="black" points="78,-187 24,-187 24,-151 78,-151 78,-187"/>
<text text-anchor="middle" x="51" y="-166.2" font-family="Courier,monospace" font-size="11.00">iRule</text>
</g>
<!-- \\validators\\Rule&#45;&gt;\\validators\\iRule -->
<g id="edge2" class="edge">
<title>\\validators\\Rule&#45;&gt;\\validators\\iRule</title>
<path fill="none" stroke="black" stroke-dasharray="1,5" d="M149.7,-169C131.87,-169 108.05,-169 88.39,-169"/>
<polygon fill="none" stroke="black" points="88.26,-165.5 78.26,-169 88.26,-172.5 88.26,-165.5"/>
</g>
<!-- \\validators\\Validator -->
<g id="node5" class="node">
<title>\\validators\\Validator</title>
<polygon fill="none" stroke="black" points="356.5,-106 279.5,-106 279.5,-70 356.5,-70 356.5,-106"/>
<text text-anchor="middle" x="318" y="-85.2" font-family="Courier,monospace" font-size="11.00">Validator</text>
</g>
<!-- \\Form -->
<g id="node6" class="node">
<title>\\Form</title>
<polygon fill="none" stroke="black" points="360,-52 276,-52 276,-16 360,-16 360,-52"/>
<text text-anchor="start" x="284" y="-37.2" font-family="Courier,monospace" font-size="11.00">«abstract»</text>
<text text-anchor="start" x="304" y="-25.2" font-family="Courier,monospace" font-size="11.00">Form</text>
</g>
</g>
</svg>
