<?xml version="1.0" encoding="UTF-8" standalone="no"?>
<!DOCTYPE svg PUBLIC "-//W3C//DTD SVG 1.1//EN"
 "http://www.w3.org/Graphics/SVG/1.1/DTD/svg11.dtd">
<!-- Generated by graphviz version 2.43.0 (0)
 -->
<!-- Title: G Pages: 1 -->
<svg width="124pt" height="178pt"
 viewBox="0.00 0.00 124.00 178.00" xmlns="http://www.w3.org/2000/svg" xmlns:xlink="http://www.w3.org/1999/xlink">
<g id="graph0" class="graph" transform="scale(1 1) rotate(0) translate(4 174)">
<title>G</title>
<polygon fill="white" stroke="transparent" points="-4,4 -4,-174 120,-174 120,4 -4,4"/>
<g id="clust1" class="cluster">
<title>cluster_Global</title>
<path fill="none" stroke="gray" d="M20,-8C20,-8 96,-8 96,-8 102,-8 108,-14 108,-20 108,-20 108,-150 108,-150 108,-156 102,-162 96,-162 96,-162 20,-162 20,-162 14,-162 8,-156 8,-150 8,-150 8,-20 8,-20 8,-14 14,-8 20,-8"/>
<text text-anchor="middle" x="58" y="-149.2" font-family="Times,serif" font-size="11.00" fill="gray">Global</text>
</g>
<g id="clust2" class="cluster">
<title>cluster_\validators</title>
<path fill="none" stroke="gray" d="M30,-62C30,-62 86,-62 86,-62 92,-62 98,-68 98,-74 98,-74 98,-122 98,-122 98,-128 92,-134 86,-134 86,-134 30,-134 30,-134 24,-134 18,-128 18,-122 18,-122 18,-74 18,-74 18,-68 24,-62 30,-62"/>
<text text-anchor="middle" x="58" y="-121.2" font-family="Times,serif" font-size="11.00" fill="gray">validators</text>
</g>
<!-- \\validators\\Primary -->
<g id="node1" class="node">
<title>\\validators\\Primary</title>
<polygon fill="none" stroke="black" points="90,-106 26,-106 26,-70 90,-70 90,-106"/>
<text text-anchor="middle" x="58" y="-85.2" font-family="Courier,monospace" font-size="11.00">Primary</text>
</g>
<!-- \\Form -->
<g id="node2" class="node">
<title>\\Form</title>
<polygon fill="none" stroke="black" points="100,-52 16,-52 16,-16 100,-16 100,-52"/>
<text text-anchor="start" x="24" y="-37.2" font-family="Courier,monospace" font-size="11.00">«abstract»</text>
<text text-anchor="start" x="44" y="-25.2" font-family="Courier,monospace" font-size="11.00">Form</text>
</g>
</g>
</svg>
