<?xml version="1.0" encoding="UTF-8" standalone="no"?>
<!DOCTYPE svg PUBLIC "-//W3C//DTD SVG 1.1//EN"
 "http://www.w3.org/Graphics/SVG/1.1/DTD/svg11.dtd">
<!-- Generated by graphviz version 2.43.0 (0)
 -->
<!-- Title: G Pages: 1 -->
<svg width="140pt" height="132pt"
 viewBox="0.00 0.00 140.00 132.00" xmlns="http://www.w3.org/2000/svg" xmlns:xlink="http://www.w3.org/1999/xlink">
<g id="graph0" class="graph" transform="scale(1 1) rotate(0) translate(4 128)">
<title>G</title>
<polygon fill="white" stroke="transparent" points="-4,4 -4,-128 136,-128 136,4 -4,4"/>
<g id="clust1" class="cluster">
<title>cluster_Global</title>
<path fill="none" stroke="gray" d="M20,-8C20,-8 112,-8 112,-8 118,-8 124,-14 124,-20 124,-20 124,-104 124,-104 124,-110 118,-116 112,-116 112,-116 20,-116 20,-116 14,-116 8,-110 8,-104 8,-104 8,-20 8,-20 8,-14 14,-8 20,-8"/>
<text text-anchor="middle" x="66" y="-103.2" font-family="Times,serif" font-size="11.00" fill="gray">Global</text>
</g>
<g id="clust2" class="cluster">
<title>cluster_\forms</title>
<path fill="none" stroke="gray" d="M28,-16C28,-16 104,-16 104,-16 110,-16 116,-22 116,-28 116,-28 116,-76 116,-76 116,-82 110,-88 104,-88 104,-88 28,-88 28,-88 22,-88 16,-82 16,-76 16,-76 16,-28 16,-28 16,-22 22,-16 28,-16"/>
<text text-anchor="middle" x="66" y="-75.2" font-family="Times,serif" font-size="11.00" fill="gray">forms</text>
</g>
<!-- \\forms\\Form -->
<g id="node1" class="node">
<title>\\forms\\Form</title>
<polygon fill="none" stroke="black" points="108,-60 24,-60 24,-24 108,-24 108,-60"/>
<text text-anchor="start" x="32" y="-45.2" font-family="Courier,monospace" font-size="11.00">«abstract»</text>
<text text-anchor="start" x="52" y="-33.2" font-family="Courier,monospace" font-size="11.00">Form</text>
</g>
</g>
</svg>
